<?xml version="1.0" encoding="UTF-8"?>
<svg width="41px" height="40px" viewBox="0 0 41 40" version="1.1" xmlns="http://www.w3.org/2000/svg" xmlns:xlink="http://www.w3.org/1999/xlink">
    <title>Add event-button</title>
    <g id="Timeline" stroke="none" stroke-width="1" fill="none" fill-rule="evenodd">
        <g id="375-pt-section" transform="translate(-167.000000, -260.000000)">
            <g id="Group-2" transform="translate(0.000000, 64.000000)">
                <g id="Add-event-button" transform="translate(167.500000, 196.000000)">
                    <path d="M18.977508,0 L21.022492,0 C25.5859724,0 28.7576648,0.77354676 31.4737142,2.22610586 C34.1897636,3.67866497 36.321335,5.81023642 37.7738941,8.5262858 C39.2264532,11.2423352 40,14.4140276 40,18.977508 L40,21.022492 C40,25.5859724 39.2264532,28.7576648 37.7738941,31.4737142 C36.321335,34.1897636 34.1897636,36.321335 31.4737142,37.7738941 C28.7576648,39.2264532 25.5859724,40 21.022492,40 L18.977508,40 C14.4140276,40 11.2423352,39.2264532 8.5262858,37.7738941 C5.81023642,36.321335 3.67866497,34.1897636 2.22610586,31.4737142 C0.77354676,28.7576648 0,25.5859724 0,21.022492 L0,18.977508 C0,14.4140276 0.77354676,11.2423352 2.22610586,8.5262858 C3.67866497,5.81023642 5.81023642,3.67866497 8.5262858,2.22610586 C11.2423352,0.77354676 14.4140276,0 18.977508,0 Z" id="Path" fill="#007AFF"></path>
                    <path d="M19.0431507,19.0431507 L19.0431507,13.8139921 C19.0431507,13.2855389 19.4715467,12.8571429 20,12.8571429 C20.5284533,12.8571429 20.9568493,13.2855389 20.9568493,13.8139921 L20.9568493,19.0431507 L26.1860079,19.0431507 C26.7144611,19.0431507 27.1428571,19.4715467 27.1428571,20 C27.1428571,20.5284533 26.7144611,20.9568493 26.1860079,20.9568493 L20.9568493,20.9568493 L20.9568493,26.1860079 C20.9568493,26.7144611 20.5284533,27.1428571 20,27.1428571 C19.4715467,27.1428571 19.0431507,26.7144611 19.0431507,26.1860079 L19.0431507,20.9568493 L13.8139921,20.9568493 C13.2855389,20.9568493 12.8571429,20.5284533 12.8571429,20 C12.8571429,19.4715467 13.2855389,19.0431507 13.8139921,19.0431507 L19.0431507,19.0431507 Z" id="X" fill="#FFFFFF"></path>
                </g>
            </g>
        </g>
    </g>
</svg>